# xmcd
#
# Track frame offsets: 
#        150
#        11585
#        26758
#        41027
#        55188
#        76203
#        89666
#        111429
#        130115
#        147394
#        165714
#        180945
#        203501
#        223237
#        235715
#        253568
#
# Disc length: 3507 seconds
#
# Revision: 0
# Processed by: cddbd v1.5.2PL0 Copyright (c) Steve Scherf et al.
# Submitted via: ExactAudioCopy v1.1
#
DISCID=da0db110
DTITLE=Various Artist - The Liberty to Choose
DYEAR=2013
DGENRE=Folk
TTITLE0=James Findlay, Bella Hardy, Brian Peters, Lucy Ward - The Baff
TTITLE0=led Knight
TTITLE1=Bella Hardy - The Seeds of Love
TTITLE2=Brian Peters - Young Rambleaway
TTITLE3=James Findlay - Jolly Waggoner
TTITLE4=Bella Hardy, Lucy Ward - The Trees They Do Grow High
TTITLE5=Brian Peters - The Molecatcher
TTITLE6=James Findlay - Barbara Allen
TTITLE7=James Findlay, Bella Hardy, Brian Peters, Lucy Ward - The Fema
TTITLE7=le Highwayman
TTITLE8=Bella Hardy - Bonny Light Horseman
TTITLE9=Brian Peters - Captain Ward and the Rainbow
TTITLE10=James Findlay, Bella Hardy, Brian Peters, Lucy Ward - The Hun
TTITLE10=gry Fox
TTITLE11=Lucy Ward - The Cruel Mother
TTITLE12=James Findlay, Brian Peters - Van Dieman's Land
TTITLE13=James Findlay - Claudy Banks
TTITLE14=James Findlay, Bella Hardy, Brian Peters - Faithful Sailor Bo
TTITLE14=y
TTITLE15=James Findlay, Bella Hardy, Brian Peters, Lucy Ward - The Moo
TTITLE15=n Shines Bright
EXTD=
EXTT0=
EXTT1=
EXTT2=
EXTT3=
EXTT4=
EXTT5=
EXTT6=
EXTT7=
EXTT8=
EXTT9=
EXTT10=
EXTT11=
EXTT12=
EXTT13=
EXTT14=
EXTT15=
PLAYORDER=
